<?xml version="1.0" standalone="no"?>
<!DOCTYPE svg PUBLIC "-//W3C//DTD SVG 20010904//EN"
 "http://www.w3.org/TR/2001/REC-SVG-20010904/DTD/svg10.dtd">
<svg version="1.0" xmlns="http://www.w3.org/2000/svg"
 width="460.000000pt" height="460.000000pt" viewBox="0 0 460.000000 460.000000"
 preserveAspectRatio="xMidYMid meet">
<metadata>
Created by potrace 1.11, written by Peter Selinger 2001-2013
</metadata>
<g transform="translate(0.000000,460.000000) scale(0.100000,-0.100000)"
fill="#000000" stroke="none">
<path d="M2763 4580 c-39 -10 -86 -26 -103 -35 -72 -37 -263 -76 -570 -116
-496 -64 -677 -118 -872 -261 -230 -169 -384 -442 -503 -893 -112 -427 -134
-624 -100 -935 35 -334 88 -491 230 -685 93 -127 161 -239 194 -320 77 -185
116 -238 200 -276 86 -39 207 -12 275 60 33 35 33 34 -13 47 l-34 9 61 38 61
37 -17 30 c-13 22 -14 34 -6 47 30 48 44 -1 44 -158 0 -88 0 -89 -29 -104 -16
-8 -38 -26 -49 -40 -12 -15 -30 -25 -45 -25 -41 0 -57 -25 -57 -87 0 -53 -2
-56 -49 -99 -31 -28 -57 -63 -71 -97 l-22 -52 -111 -50 c-116 -52 -222 -111
-271 -152 -16 -13 -35 -22 -43 -19 -38 15 -212 -144 -259 -236 -25 -50 -74
-181 -74 -200 0 -4 714 -8 1586 -8 l1587 0 -7 75 c-4 41 -16 107 -27 147 -11
40 -24 116 -29 168 -14 151 -15 151 -68 187 -45 30 -173 93 -189 93 -4 0 -35
11 -68 24 -33 13 -86 34 -117 46 -60 23 -79 46 -30 35 23 -5 36 1 76 36 41 36
50 40 70 31 20 -9 25 -6 40 20 17 28 19 29 37 12 17 -16 21 -13 86 52 42 42
75 67 86 65 19 -3 45 24 79 81 17 30 26 36 43 32 17 -4 32 5 65 43 23 26 49
63 58 81 11 22 21 31 32 27 12 -4 22 11 41 62 21 60 28 68 54 73 28 5 30 9 33
52 3 42 6 47 30 50 23 3 27 8 30 42 2 26 11 45 30 61 22 19 26 32 30 91 3 43
10 76 20 87 14 16 13 22 -8 68 -13 28 -47 73 -75 101 -80 81 -188 278 -207
378 -19 102 -6 182 53 315 52 116 54 123 54 210 0 102 -14 154 -121 473 l-66
192 40 103 c89 229 82 264 -93 464 -194 221 -529 460 -712 507 -78 20 -121 19
-210 -4z m228 -44 c22 0 35 -2 29 -4 -7 -3 20 -15 58 -28 38 -12 98 -40 133
-60 100 -58 249 -174 277 -216 24 -38 25 -39 6 -53 -34 -26 -159 -19 -266 14
-171 52 -368 92 -523 107 -38 3 -99 15 -135 25 -65 20 -140 61 -140 78 0 18
53 51 92 57 21 4 38 10 38 15 0 5 10 9 23 9 12 0 67 12 122 26 120 31 192 43
223 36 13 -2 42 -5 63 -6z m-1072 -233 c6 -21 11 -45 11 -53 -1 -36 -41 -100
-83 -131 -51 -39 -42 -32 -202 -137 -66 -43 -149 -102 -185 -130 -36 -29 -72
-58 -81 -64 -130 -100 -290 -305 -368 -473 -61 -130 -79 -185 -137 -405 -20
-76 -72 -440 -84 -582 -18 -213 -30 -302 -47 -341 -9 -21 -21 -36 -26 -34 -16
5 -43 114 -68 274 -24 154 -33 445 -15 471 4 6 6 12 4 12 -3 0 -1 24 4 53 4
28 13 81 18 117 5 36 13 79 17 95 3 17 6 43 6 58 0 16 3 24 7 18 5 -9 50 182
53 227 0 6 5 12 10 12 5 0 7 9 4 19 -3 11 1 28 7 38 7 10 18 43 25 73 8 30 17
60 21 65 4 6 15 37 25 70 9 33 24 68 32 77 8 9 12 22 8 27 -3 6 -2 11 2 11 10
0 37 59 36 77 0 7 3 10 8 7 5 -3 14 8 21 23 13 30 57 94 72 104 5 4 6 14 3 24
-4 9 -3 14 2 11 8 -5 62 45 64 61 1 4 5 7 9 6 8 -3 78 77 78 89 0 5 -4 6 -10
3 -5 -3 -10 -1 -10 4 0 6 4 11 9 11 18 0 23 -21 9 -38 -12 -16 -11 -16 7 -2
11 8 22 16 24 17 2 1 -2 11 -10 20 -12 16 -12 17 2 6 13 -10 28 -5 90 30 200
113 467 215 571 216 l57 1 10 -37z m-672 -170 c0 -9 -4 -10 -14 -2 -7 6 -13
12 -13 14 0 1 6 2 13 2 8 0 14 -6 14 -14z m1610 -100 c-4 -3 -1 -13 6 -22 11
-14 10 -14 -5 -2 -16 12 -16 31 -1 31 4 0 3 -3 0 -7z m-18 -27 c8 -10 9 -16 1
-21 -6 -4 -9 -1 -8 7 2 7 -5 12 -14 12 -10 -1 -15 2 -12 7 8 13 20 11 33 -5z
m81 -21 c17 -9 30 -14 30 -11 0 7 105 -39 110 -49 16 -32 -74 -1 -155 54 -35
24 -27 27 15 6z m-397 -37 c-2 -5 -10 -8 -18 -8 -8 0 -16 3 -18 8 -3 4 5 7 18
7 13 0 21 -3 18 -7z m42 2 c-4 -6 6 -10 22 -10 15 0 75 -3 133 -6 92 -5 107
-8 124 -27 l18 -22 -53 -3 c-32 -2 -97 7 -168 24 -103 24 -113 28 -96 40 22
17 28 18 20 4z m762 -14 c18 -21 18 -21 -3 -3 -16 13 -23 15 -26 6 -3 -9 -6
-9 -10 2 -9 23 19 19 39 -5z m-392 -14 c-3 -3 -11 0 -18 7 -9 10 -8 11 6 5 10
-3 15 -9 12 -12z m-706 -63 c30 -11 84 -24 120 -30 36 -6 70 -15 76 -20 14
-14 -52 -11 -120 5 -40 10 -62 11 -66 4 -8 -12 -46 11 -78 48 -20 23 -21 26
-5 19 11 -4 43 -16 73 -26z m1422 -2 c-10 -9 -11 -8 -5 6 3 10 9 15 12 12 3
-3 0 -11 -7 -18z m-389 -62 c29 -9 89 -18 133 -22 88 -6 97 -9 164 -59 106
-79 122 -108 224 -399 70 -199 135 -430 124 -441 -2 -2 -38 3 -81 11 -82 16
-195 19 -261 7 l-40 -8 2 -56 c1 -31 8 -68 15 -82 l14 -27 26 21 c14 11 29 20
33 20 3 0 32 13 64 29 62 31 140 51 196 51 l33 0 -14 -62 c-8 -34 -30 -96 -48
-138 -40 -87 -56 -158 -56 -238 0 -111 20 -164 147 -388 22 -39 45 -92 52
-118 10 -43 10 -51 -9 -81 -46 -75 -140 -130 -207 -122 -54 6 -76 25 -92 80
-16 53 -37 77 -69 77 -13 0 -37 10 -54 21 -27 20 -44 22 -162 23 -128 1 -134
0 -167 -25 -19 -14 -55 -29 -80 -33 -26 -4 -64 -16 -85 -26 -21 -11 -45 -20
-54 -20 -32 0 -92 -22 -110 -40 -10 -10 -24 -38 -30 -62 -7 -24 -19 -51 -27
-60 -21 -24 -97 -68 -136 -79 -56 -16 -216 -28 -245 -18 -15 5 -56 13 -92 18
-67 9 -128 28 -215 68 -27 12 -70 25 -95 29 -25 4 -58 18 -73 31 -16 12 -41
26 -55 29 -15 4 -38 17 -52 29 -14 13 -49 35 -78 49 l-52 26 -11 -27 c-10 -27
-21 -79 -34 -156 -5 -29 -3 -37 5 -32 15 9 6 -24 -21 -77 -23 -45 -23 -48 -5
-48 12 0 13 -7 5 -32 -13 -46 -11 -118 2 -118 7 0 28 -16 47 -36 23 -24 41
-34 54 -31 13 4 22 -1 28 -16 4 -12 24 -37 44 -56 27 -27 38 -32 49 -23 10 9
23 2 57 -33 40 -40 80 -59 80 -37 0 5 20 -10 45 -33 54 -49 113 -75 126 -54 6
11 13 8 33 -10 14 -14 29 -22 32 -18 4 3 23 -22 44 -56 39 -64 66 -80 89 -53
11 13 16 10 40 -16 26 -30 28 -30 64 -17 35 12 38 12 66 -15 l30 -28 31 22
c44 31 56 17 63 -82 4 -46 14 -103 22 -128 15 -44 15 -44 11 73 -2 65 -1 115
2 112 3 -2 17 -26 32 -52 l27 -46 -20 -51 c-10 -28 -28 -84 -38 -125 -10 -41
-21 -77 -24 -80 -3 -2 -22 11 -43 31 -20 20 -84 62 -141 93 -171 93 -549 280
-644 319 -124 51 -219 100 -241 125 -15 17 -18 35 -17 93 1 40 -3 118 -8 173
-10 98 -10 100 14 125 l24 25 -24 44 c-29 51 -29 51 -10 51 8 0 15 5 15 10 0
18 -51 89 -77 105 -30 20 -57 80 -49 111 9 35 -11 69 -52 87 -48 22 -55 11
-14 -22 35 -30 41 -61 16 -85 -15 -16 -28 -20 -51 -17 -19 3 -16 -16 3 -23 26
-10 51 -7 64 9 21 25 30 17 30 -24 0 -36 -18 -67 -33 -56 -4 3 -5 2 -2 -2 3
-3 0 -12 -6 -20 -59 -70 -357 172 -359 291 0 10 23 44 52 75 28 31 64 74 80
96 16 22 41 43 56 47 57 16 163 -21 204 -71 15 -17 32 -31 38 -31 6 0 33 -21
60 -46 l49 -46 7 37 c10 53 -4 188 -25 254 -13 40 -20 100 -24 208 -6 139 -4
157 16 218 22 65 24 67 78 89 30 12 81 39 113 61 l58 38 -7 56 c-4 30 -15 82
-25 116 -11 33 -22 85 -25 115 -4 30 -13 75 -20 100 -8 25 -15 74 -17 110 -2
55 2 74 27 122 27 53 33 58 89 79 81 29 225 100 282 138 25 17 55 31 66 31 34
0 186 30 231 46 23 8 48 20 57 28 9 8 68 17 150 24 76 6 159 19 189 30 69 23
301 22 383 -3z m-1311 -49 c41 -13 91 -27 112 -31 58 -11 60 -29 2 -22 -26 4
-70 7 -97 7 -41 0 -54 5 -86 35 -45 42 -32 44 69 11z m-137 -197 c-3 -5 -12
-9 -20 -9 -8 0 -14 -4 -14 -8 0 -4 -12 -13 -27 -19 -16 -7 -35 -17 -43 -22
-40 -27 -130 -63 -170 -67 -55 -7 -140 23 -105 37 11 4 32 8 46 8 15 1 64 12
110 26 46 14 91 27 99 29 53 11 79 19 76 25 -2 3 9 6 25 7 15 1 26 -3 23 -7z
m-134 -333 c0 -3 -4 -8 -10 -11 -5 -3 -10 -1 -10 4 0 6 5 11 10 11 6 0 10 -2
10 -4z m96 -304 c-5 -37 -5 -37 20 13 l26 50 -7 -45 c-3 -25 -15 -54 -25 -66
-11 -11 -20 -26 -20 -32 0 -7 -6 -12 -13 -12 -7 0 -28 -11 -47 -23 -60 -40
-146 -86 -172 -91 -14 -2 -31 0 -39 5 -12 8 -10 12 6 24 89 65 149 118 199
177 49 57 61 66 69 53 5 -9 6 -33 3 -53z m-516 -458 c-61 -165 -137 -309 -213
-404 -15 -19 -32 -40 -37 -46 -5 -7 -6 -15 -2 -20 4 -4 2 -4 -5 -1 -6 4 -17 1
-25 -6 -55 -56 -96 -38 -46 19 18 22 38 46 43 55 6 9 41 63 80 120 38 57 77
118 86 134 9 17 33 59 53 95 21 36 47 85 59 110 18 38 22 41 25 22 2 -12 -6
-47 -18 -78z m0 -339 c0 -1 -12 -12 -27 -26 -20 -17 -23 -18 -10 -3 9 11 15
23 12 26 -3 2 2 5 10 5 8 0 15 -1 15 -2z m-80 -105 c-6 -11 -13 -20 -16 -20
-2 0 0 9 6 20 6 11 13 20 16 20 2 0 0 -9 -6 -20z m-235 -179 c3 -5 2 -12 -3
-15 -5 -3 -9 1 -9 9 0 17 3 19 12 6z m-110 -51 c3 -5 1 -10 -4 -10 -6 0 -11 5
-11 10 0 6 2 10 4 10 3 0 8 -4 11 -10z m2319 2 c3 -5 -1 -9 -9 -9 -8 0 -12 4
-9 9 3 4 7 8 9 8 2 0 6 -4 9 -8z m343 -8 c14 -2 26 -16 33 -40 10 -31 9 -53
-10 -143 -37 -174 -22 -157 -131 -153 -77 3 -105 0 -154 -18 -95 -34 -102 -34
-139 -10 -24 17 -40 42 -60 93 -43 109 -43 118 -4 147 18 13 40 25 48 25 9 1
33 13 55 28 21 14 41 24 45 22 3 -2 35 11 70 29 60 29 71 31 145 28 44 -2 90
-5 102 -8z m-387 -8 c0 -2 -8 -10 -17 -17 -16 -13 -17 -12 -4 4 13 16 21 21
21 13z m-260 -192 c0 -8 -19 -13 -24 -6 -3 5 1 9 9 9 8 0 15 -2 15 -3z m-799
-39 c60 -39 133 -53 343 -65 266 -16 348 -6 458 58 60 35 78 35 78 1 0 -126
-253 -223 -520 -199 -272 24 -407 86 -448 209 l-12 33 32 -6 c18 -4 49 -17 69
-31z m1044 -165 c3 -6 -1 -7 -9 -4 -18 7 -21 14 -7 14 6 0 13 -4 16 -10z"/>
<path d="M2655 2835 c-123 -29 -246 -71 -345 -118 -81 -39 -74 -44 34 -28 147
23 367 43 439 40 l77 -4 0 30 c0 17 -5 47 -11 68 -9 35 -12 37 -52 36 -23 0
-87 -11 -142 -24z m-65 -49 c0 -2 -9 -6 -20 -9 -11 -3 -18 -1 -14 4 5 9 34 13
34 5z"/>
<path d="M3557 2646 c-33 -30 -50 -95 -45 -166 5 -71 25 -109 67 -134 34 -19
34 -19 70 0 63 34 89 150 56 245 -28 78 -96 103 -148 55z m132 -128 c10 -28 5
-44 -16 -52 -24 -9 -51 3 -58 25 -15 45 58 71 74 27z"/>
<path d="M2640 2538 c-73 -78 -82 -274 -17 -374 57 -87 159 -60 199 53 7 22
13 78 13 133 -1 78 -5 102 -23 137 -46 88 -117 109 -172 51z m160 -153 c26
-32 -13 -81 -47 -59 -35 22 -23 74 17 74 10 0 23 -7 30 -15z"/>
<path d="M3450 2351 c0 -30 35 -89 80 -137 66 -69 67 -97 6 -150 -39 -35 -105
-87 -161 -129 -31 -23 2 -19 69 8 73 30 172 116 181 157 13 57 -4 89 -91 178
-46 46 -84 79 -84 73z"/>
<path d="M1285 2016 c-37 -16 -95 -80 -95 -104 1 -24 35 -98 51 -107 9 -6 10
-3 5 10 -4 11 -10 38 -13 61 -5 38 -2 45 35 83 32 33 46 41 76 41 64 0 105
-32 106 -85 1 -29 2 -29 11 -7 23 58 -33 122 -104 122 -23 -1 -56 -7 -72 -14z"/>
<path d="M1340 1918 c-11 -12 -20 -34 -20 -48 0 -33 38 -70 71 -70 24 0 24 0
-8 31 -18 16 -33 34 -33 39 0 5 12 22 26 39 25 29 25 31 5 31 -11 0 -29 -10
-41 -22z"/>
<path d="M3289 1725 c-76 -15 -193 -60 -227 -86 l-24 -18 49 -31 c94 -60 203
-76 279 -41 33 15 47 30 67 72 14 30 28 69 32 87 l7 32 -59 -1 c-32 0 -88 -7
-124 -14z"/>
<path d="M3802 553 c-14 -6 -90 -116 -103 -151 -18 -48 -2 -66 155 -171 156
-103 183 -114 224 -86 26 19 37 14 124 -53 121 -95 115 -92 202 -92 l79 0 -43
33 c-24 17 -55 41 -70 52 -135 99 -210 159 -210 167 0 5 5 18 11 29 23 44 2
76 -89 136 -48 30 -116 75 -153 99 -60 41 -94 50 -127 37z"/>
</g>
</svg>
