<?xml version="1.0" standalone="no"?>
<!DOCTYPE svg PUBLIC "-//W3C//DTD SVG 20010904//EN"
 "http://www.w3.org/TR/2001/REC-SVG-20010904/DTD/svg10.dtd">
<svg version="1.0" xmlns="http://www.w3.org/2000/svg"
 width="800.000000pt" height="800.000000pt" viewBox="0 0 800.000000 800.000000"
 preserveAspectRatio="xMidYMid meet">
<metadata>
Created by potrace 1.11, written by Peter Selinger 2001-2013
</metadata>
<g transform="translate(0.000000,800.000000) scale(0.100000,-0.100000)"
fill="#000000" stroke="none">
<path d="M2390 7398 c-25 -4 -52 -11 -60 -14 -8 -4 -19 -6 -23 -5 -14 3 -191
-71 -216 -90 -13 -11 -30 -19 -37 -19 -8 0 -14 -3 -14 -7 0 -5 -17 -19 -38
-33 -20 -14 -45 -33 -54 -44 -10 -10 -18 -15 -18 -11 0 8 -17 -10 -75 -77 -11
-13 -33 -41 -49 -63 -16 -22 -32 -42 -36 -45 -6 -5 -94 -179 -96 -190 0 -3 -8
-29 -17 -59 -9 -30 -15 -57 -12 -59 3 -3 0 -12 -7 -19 -17 -21 -19 -305 -2
-368 7 -27 16 -63 19 -79 9 -47 65 -177 97 -224 15 -24 28 -47 28 -52 0 -4 3
-10 8 -12 4 -1 25 -25 47 -53 50 -64 106 -115 175 -163 30 -20 57 -39 60 -42
3 -3 31 -18 63 -34 31 -15 57 -30 57 -34 0 -3 -23 -52 -51 -109 -28 -57 -52
-115 -53 -128 0 -14 -4 -25 -7 -25 -7 0 -50 -164 -47 -177 0 -5 -2 -15 -5 -23
-11 -27 -25 -145 -24 -193 1 -26 -1 -47 -5 -47 -10 0 -11 -144 -2 -153 4 -3
20 1 36 9 19 10 34 12 40 6 5 -5 10 -60 12 -123 4 -128 22 -232 72 -426 34
-134 40 -173 27 -173 -13 0 -66 -53 -98 -95 -16 -22 -31 -42 -35 -45 -9 -9
-60 -118 -63 -137 -1 -10 -6 -23 -10 -30 -13 -21 -29 -172 -19 -187 3 -5 6
-26 7 -46 3 -45 34 -142 49 -152 6 -4 7 -8 3 -8 -5 0 1 -13 13 -30 12 -16 19
-30 15 -30 -3 0 6 -12 20 -27 14 -15 25 -31 25 -35 0 -14 115 -118 131 -118 5
0 17 -8 27 -18 16 -16 130 -72 146 -72 15 0 34 -29 76 -120 24 -52 51 -103 59
-112 8 -10 11 -18 7 -18 -4 0 -2 -6 4 -12 15 -17 80 -119 80 -124 0 -6 21 -31
43 -52 9 -9 17 -20 17 -23 0 -15 154 -176 216 -227 133 -108 424 -264 536
-286 50 -10 88 -29 89 -44 3 -53 4 -330 1 -344 -4 -17 -50 -32 -172 -53 -19
-3 -60 -13 -90 -22 -30 -9 -64 -18 -75 -20 -11 -2 -24 -8 -29 -13 -4 -4 -15
-6 -22 -3 -8 3 -14 -1 -14 -8 0 -7 -3 -10 -6 -6 -6 6 -131 -36 -169 -56 -11
-6 -23 -12 -27 -13 -5 -1 -10 -3 -13 -4 -3 -1 -8 -3 -12 -4 -5 -1 -57 -27
-116 -59 -59 -31 -112 -57 -117 -57 -4 0 -10 -3 -12 -7 -1 -5 -23 -21 -48 -38
-25 -16 -56 -40 -70 -52 -14 -13 -28 -23 -32 -23 -5 0 -94 -79 -123 -110 -5
-6 -27 -28 -48 -50 -21 -22 -35 -40 -31 -40 4 0 -4 -12 -18 -27 -30 -33 -98
-148 -98 -167 0 -6 -4 -16 -10 -22 -14 -14 -51 -125 -45 -134 3 -5 1 -11 -3
-14 -5 -3 -9 -18 -8 -33 l1 -28 1880 0 1880 0 -2 25 c-5 75 -24 133 -82 245
-25 50 -50 95 -56 101 -5 7 -21 26 -35 44 -14 18 -35 42 -47 53 -13 11 -23 26
-23 32 0 6 -10 17 -22 25 -11 8 -35 29 -53 45 -17 17 -58 50 -91 75 -32 25
-60 48 -62 53 -2 4 -8 7 -13 7 -9 0 -110 59 -119 70 -11 12 -250 120 -330 148
-102 36 -304 94 -316 91 -5 -1 -16 0 -24 4 -8 3 -32 8 -52 12 -33 5 -38 10
-39 33 -3 112 0 364 5 369 3 3 38 16 78 30 76 25 254 105 298 133 14 9 46 31
72 48 25 18 49 32 52 32 3 0 15 8 25 18 11 9 36 31 57 47 20 17 58 50 83 75
39 38 65 68 156 177 23 28 31 39 44 65 8 15 21 36 30 46 9 10 22 29 30 42 27
47 111 220 111 228 0 10 35 52 43 52 3 0 18 5 34 12 15 6 34 12 41 14 8 1 22
10 33 20 10 9 19 14 19 10 0 -4 6 -2 13 3 49 41 76 61 80 61 3 0 21 15 40 33
37 36 122 157 111 157 -4 0 0 8 8 18 18 21 50 111 43 123 -3 4 -1 10 5 14 9 6
11 25 12 120 0 42 -7 100 -12 100 -1 0 -3 13 -5 28 -5 36 -73 183 -93 199 -28
24 -31 56 -17 170 7 62 13 132 12 156 -1 23 2 43 7 45 14 5 20 692 6 812 -18
168 -19 178 -34 245 -27 119 -35 145 -61 203 -28 65 -29 67 -15 67 14 0 172
95 197 119 12 12 25 21 27 21 9 0 106 101 106 110 0 5 6 13 13 17 37 23 164
266 171 326 1 13 5 28 9 34 3 5 9 28 13 49 8 52 14 296 7 307 -3 5 -7 27 -8
48 -2 21 -7 44 -11 51 -4 7 -9 22 -10 34 -1 13 -13 44 -25 71 -12 26 -21 51
-21 55 1 4 -16 37 -38 73 -22 36 -40 69 -40 73 0 4 -8 15 -17 23 -10 9 -27 28
-38 44 -24 34 -93 105 -101 105 -4 0 -21 12 -39 28 -60 51 -75 62 -84 62 -4 0
-19 8 -32 19 -30 23 -209 95 -216 87 -4 -3 -12 -1 -19 4 -6 6 -28 12 -46 14
-19 2 -39 5 -44 8 -17 9 -263 7 -269 -2 -3 -5 -12 -7 -19 -4 -8 3 -31 1 -52
-5 -22 -6 -42 -11 -46 -11 -11 -1 -76 -25 -123 -45 -22 -10 -42 -17 -45 -17
-3 0 -12 -6 -21 -14 -9 -8 -19 -11 -22 -7 -4 3 -7 1 -7 -5 0 -6 -9 -14 -21
-17 -11 -4 -36 -20 -55 -37 -19 -17 -34 -27 -34 -24 0 4 -11 -4 -24 -18 -13
-15 -27 -26 -32 -26 -5 -1 -20 -15 -34 -31 -14 -17 -35 -42 -47 -55 -12 -13
-30 -37 -39 -54 -10 -16 -22 -30 -26 -30 -4 0 -8 -4 -8 -8 0 -5 -20 -44 -45
-88 -41 -73 -72 -105 -117 -120 -10 -4 -18 -10 -18 -14 0 -5 -9 -12 -21 -15
-12 -4 -29 -13 -38 -20 -9 -8 -44 -35 -79 -60 -61 -46 -64 -47 -130 -45 -64 2
-278 2 -406 1 -33 0 -62 -5 -66 -11 -8 -12 -80 25 -80 41 0 5 -6 9 -14 9 -8 0
-16 3 -18 8 -1 4 -27 23 -56 41 -30 19 -59 40 -66 46 -7 7 -22 15 -34 19 -15
5 -35 35 -64 94 -23 48 -46 92 -50 97 -5 6 -32 41 -61 80 -60 80 -70 90 -119
127 -20 15 -42 34 -50 41 -45 45 -300 168 -316 153 -3 -3 -11 -1 -18 4 -6 6
-29 13 -50 15 -22 2 -39 5 -39 6 0 6 -267 4 -305 -3z"/>
</g>
</svg>
