<?xml version="1.0" standalone="no"?>
<!DOCTYPE svg PUBLIC "-//W3C//DTD SVG 20010904//EN"
 "http://www.w3.org/TR/2001/REC-SVG-20010904/DTD/svg10.dtd">
<svg version="1.0" xmlns="http://www.w3.org/2000/svg"
 width="666.000000pt" height="666.000000pt" viewBox="0 0 666.000000 666.000000"
 preserveAspectRatio="xMidYMid meet">
<metadata>
Created by potrace 1.11, written by Peter Selinger 2001-2013
</metadata>
<g transform="translate(0.000000,666.000000) scale(0.100000,-0.100000)"
fill="#000000" stroke="none">
<path d="M3129 6656 c-2 -2 -42 -6 -89 -10 -47 -4 -96 -8 -110 -10 -14 -3 -47
-7 -74 -11 -67 -8 -195 -33 -296 -57 -47 -11 -92 -21 -100 -23 -8 -2 -60 -17
-115 -35 -502 -155 -962 -428 -1332 -792 -45 -44 -80 -85 -76 -91 3 -6 2 -7
-4 -4 -11 7 -72 -55 -157 -158 -32 -38 -66 -79 -75 -90 -35 -42 -160 -224
-213 -310 -102 -168 -215 -398 -277 -569 -52 -140 -121 -380 -136 -465 -3 -19
-7 -37 -9 -40 -2 -3 -7 -26 -10 -51 -3 -25 -8 -55 -11 -68 -28 -147 -40 -311
-39 -557 0 -245 17 -431 59 -650 24 -124 110 -415 156 -527 246 -606 576
-1050 1064 -1435 149 -117 433 -300 463 -297 6 1 12 -2 12 -7 0 -26 480 -226
635 -265 6 -1 63 -16 128 -33 65 -17 130 -33 145 -35 15 -3 68 -12 117 -20
106 -18 141 -22 255 -33 109 -10 447 -10 570 -1 95 8 113 10 225 28 33 5 78
12 100 15 22 4 58 11 80 17 22 5 51 12 65 15 73 13 290 77 405 120 150 55 350
146 379 172 10 9 20 14 23 12 7 -5 178 94 293 171 100 68 274 198 295 222 6 6
24 22 40 34 98 76 326 317 446 472 290 378 480 767 598 1230 68 265 95 493 96
800 0 273 -14 433 -60 660 -8 41 -17 85 -20 97 -2 13 -15 64 -29 115 -141 514
-366 932 -726 1348 -66 76 -133 139 -142 133 -6 -3 -8 -1 -5 5 10 15 -146 160
-298 279 -119 92 -198 146 -325 222 -58 34 -112 67 -120 72 -55 33 -295 144
-395 183 -232 89 -591 180 -795 201 -36 3 -78 8 -95 11 -35 5 -511 14 -516 10z"/>
</g>
</svg>
