<?xml version="1.0" standalone="no"?>
<!DOCTYPE svg PUBLIC "-//W3C//DTD SVG 20010904//EN"
 "http://www.w3.org/TR/2001/REC-SVG-20010904/DTD/svg10.dtd">
<svg version="1.0" xmlns="http://www.w3.org/2000/svg"
 width="512.000000pt" height="512.000000pt" viewBox="0 0 512.000000 512.000000"
 preserveAspectRatio="xMidYMid meet">
<metadata>
Created by potrace 1.11, written by Peter Selinger 2001-2013
</metadata>
<g transform="translate(0.000000,512.000000) scale(0.100000,-0.100000)"
fill="#000000" stroke="none">
<path d="M0 2560 l0 -2560 1447 0 1448 0 -855 855 -855 855 275 0 c151 0 316
5 365 11 300 37 515 174 627 402 50 101 76 199 90 340 26 265 -33 510 -162
677 -24 30 89 -75 249 -235 l291 -290 0 -452 0 -453 110 0 110 0 0 334 0 334
82 71 c45 39 84 71 88 71 3 0 141 -182 306 -405 l299 -404 127 -1 127 0 -349
480 c-193 264 -350 482 -350 485 0 5 568 634 636 705 l34 35 490 -490 490
-490 0 1343 0 1342 -2560 0 -2560 0 0 -2560z m3530 459 c0 -3 -88 -104 -195
-223 l-195 -217 0 418 0 418 195 -195 c107 -107 195 -198 195 -201z m-1627
192 c207 -55 336 -186 394 -401 26 -93 25 -387 -1 -479 -47 -171 -144 -293
-288 -361 -112 -53 -208 -70 -425 -77 l-183 -6 0 678 0 678 213 -6 c169 -4
228 -9 290 -26z"/>
</g>
</svg>
